<svg width="1684" height="1028" viewBox="0 0 1684 1028" fill="none" xmlns="http://www.w3.org/2000/svg">
<g filter="url(#filter0_d_116_67)">
<path d="M1143.84 52H540.706H517.773V70.3378C620.511 90.5093 710.025 158.206 741.94 189.533L608.357 390.102C467.091 254.861 343.866 273.008 299.912 298.987C237.994 352.625 383.807 395.451 464.454 410.159C662.593 462.422 684.608 615.695 670.849 685.799C636.908 864.134 500 931.639 435.788 943.101V958H1178.81C1225.59 918.574 1198.3 887.705 1178.81 877.199H944.321C892.952 839.148 922.918 804.421 944.321 791.814H1447.12C1495.74 755.139 1467.38 723.43 1447.12 712.159H1092.81C1042.82 676.859 1071.98 642.056 1092.81 629.066H1317.55C1358.37 594.225 1334.56 559.918 1317.55 547.12H916.229C863.484 510.902 894.252 475.87 916.229 462.88H1632.88C1685.62 429.414 1654.85 395.451 1632.88 382.653H1147.85C1098.31 345.519 1127.21 311.403 1147.85 298.987H1280.86C1327.64 265.062 1300.35 229.456 1280.86 215.894H995.347C947.647 182.427 975.472 148.846 995.347 136.239H1143.84C1194.75 99.1051 1165.05 64.6072 1143.84 52Z" fill="#71B9FF"/>
<path d="M1143.84 52H540.706H517.773V70.3378C620.511 90.5093 710.025 158.206 741.94 189.533L608.357 390.102C467.091 254.861 343.866 273.008 299.912 298.987C237.994 352.625 383.807 395.451 464.454 410.159C662.593 462.422 684.608 615.695 670.849 685.799C636.908 864.134 500 931.639 435.788 943.101V958H1178.81C1225.59 918.574 1198.3 887.705 1178.81 877.199H944.321C892.952 839.148 922.918 804.421 944.321 791.814H1447.12C1495.74 755.139 1467.38 723.43 1447.12 712.159H1092.81C1042.82 676.859 1071.98 642.056 1092.81 629.066H1317.55C1358.37 594.225 1334.56 559.918 1317.55 547.12H916.229C863.484 510.902 894.252 475.87 916.229 462.88H1632.88C1685.62 429.414 1654.85 395.451 1632.88 382.653H1147.85C1098.31 345.519 1127.21 311.403 1147.85 298.987H1280.86C1327.64 265.062 1300.35 229.456 1280.86 215.894H995.347C947.647 182.427 975.472 148.846 995.347 136.239H1143.84C1194.75 99.1051 1165.05 64.6072 1143.84 52Z" stroke="black" stroke-width="16"/>
</g>
<g filter="url(#filter1_d_116_67)">
<path d="M482.38 8H309.407L303.107 95.1455C249.955 104.777 204.21 130.118 187.982 141.585C90.8425 204.88 67.3212 316.64 67.703 364.609C49.3748 510.004 235.33 576.166 330.599 591.072C434.612 609.419 457.178 662.165 455.46 686.244C448.129 753.209 366.11 766.51 326.017 764.79C215.589 759.745 132.997 703.444 105.505 675.924L11 816.962C65.0684 873.836 176.336 904.108 225.212 912.135L214.902 1001H392.457L400.475 912.135C574.136 880.487 627.097 738.417 631.87 671.338C639.201 584.651 622.706 565.273 591.204 523.42C559.702 481.567 429.877 433.217 363.246 416.781C260.608 392.014 241.44 348.364 244.685 329.636C242.394 263.589 326.971 244.783 369.546 243.637C463.937 243.637 561.23 307.085 598.077 338.809L688 193.184C638.055 138.145 525.146 104.892 474.934 95.1455L482.38 8Z" fill="#5287B0"/>
<path d="M482.38 8H309.407L303.107 95.1455C249.955 104.777 204.21 130.118 187.982 141.585C90.8425 204.88 67.3212 316.64 67.703 364.609C49.3748 510.004 235.33 576.166 330.599 591.072C434.612 609.419 457.178 662.165 455.46 686.244C448.129 753.209 366.11 766.51 326.017 764.79C215.589 759.745 132.997 703.444 105.505 675.924L11 816.962C65.0684 873.836 176.336 904.108 225.212 912.135L214.902 1001H392.457L400.475 912.135C574.136 880.487 627.097 738.417 631.87 671.338C639.201 584.651 622.706 565.273 591.204 523.42C559.702 481.567 429.877 433.217 363.246 416.781C260.608 392.014 241.44 348.364 244.685 329.636C242.394 263.589 326.971 244.783 369.546 243.637C463.937 243.637 561.23 307.085 598.077 338.809L688 193.184C638.055 138.145 525.146 104.892 474.934 95.1455L482.38 8Z" stroke="black" stroke-width="16"/>
</g>
<g filter="url(#filter2_d_116_67)">
<path d="M1370.6 878H1266.44C1218.56 907.985 1246.49 943.161 1266.44 957H1370.6C1414.79 920.095 1389.01 888.956 1370.6 878Z" fill="#D9F3FF"/>
<path d="M1370.6 878H1266.44C1218.56 907.985 1246.49 943.161 1266.44 957H1370.6C1414.79 920.095 1389.01 888.956 1370.6 878Z" stroke="black" stroke-width="16"/>
</g>
<g filter="url(#filter3_d_116_67)">
<path d="M1499.89 548H1400.65C1346.95 580.23 1378.27 614.763 1400.65 628H1499.89C1548.99 593.007 1520.35 560.086 1499.89 548Z" fill="#D9F3FF"/>
<path d="M1499.89 548H1400.65C1346.95 580.23 1378.27 614.763 1400.65 628H1499.89C1548.99 593.007 1520.35 560.086 1499.89 548Z" stroke="black" stroke-width="16"/>
</g>
<g filter="url(#filter4_d_116_67)">
<path d="M1340.11 55H1243.63C1195.4 84.9281 1223.54 120.803 1243.63 135H1340.11C1388.81 100.007 1360.4 67.0863 1340.11 55Z" fill="#D9F3FF"/>
<path d="M1340.11 55H1243.63C1195.4 84.9281 1223.54 120.803 1243.63 135H1340.11C1388.81 100.007 1360.4 67.0863 1340.11 55Z" stroke="black" stroke-width="16"/>
</g>
<g filter="url(#filter5_d_116_67)">
<path d="M1562.89 218H1429.76C1363.19 248.302 1402.02 284.626 1429.76 299H1562.89C1630.1 263.57 1590.9 230.237 1562.89 218Z" fill="#D9F3FF"/>
<path d="M1562.89 218H1429.76C1363.19 248.302 1402.02 284.626 1429.76 299H1562.89C1630.1 263.57 1590.9 230.237 1562.89 218Z" stroke="black" stroke-width="16"/>
</g>
<defs>
<filter id="filter0_d_116_67" x="276.999" y="44" width="1407" height="941" filterUnits="userSpaceOnUse" color-interpolation-filters="sRGB">
<feFlood flood-opacity="0" result="BackgroundImageFix"/>
<feColorMatrix in="SourceAlpha" type="matrix" values="0 0 0 0 0 0 0 0 0 0 0 0 0 0 0 0 0 0 127 0" result="hardAlpha"/>
<feOffset dx="10" dy="15"/>
<feGaussianBlur stdDeviation="2"/>
<feComposite in2="hardAlpha" operator="out"/>
<feColorMatrix type="matrix" values="0 0 0 0 0 0 0 0 0 0 0 0 0 0 0 0 0 0 0.25 0"/>
<feBlend mode="normal" in2="BackgroundImageFix" result="effect1_dropShadow_116_67"/>
<feBlend mode="normal" in="SourceGraphic" in2="effect1_dropShadow_116_67" result="shape"/>
</filter>
<filter id="filter1_d_116_67" x="0.787842" y="0" width="711.181" height="1028" filterUnits="userSpaceOnUse" color-interpolation-filters="sRGB">
<feFlood flood-opacity="0" result="BackgroundImageFix"/>
<feColorMatrix in="SourceAlpha" type="matrix" values="0 0 0 0 0 0 0 0 0 0 0 0 0 0 0 0 0 0 127 0" result="hardAlpha"/>
<feOffset dx="10" dy="15"/>
<feGaussianBlur stdDeviation="2"/>
<feComposite in2="hardAlpha" operator="out"/>
<feColorMatrix type="matrix" values="0 0 0 0 0 0 0 0 0 0 0 0 0 0 0 0 0 0 0.25 0"/>
<feBlend mode="normal" in2="BackgroundImageFix" result="effect1_dropShadow_116_67"/>
<feBlend mode="normal" in="SourceGraphic" in2="effect1_dropShadow_116_67" result="shape"/>
</filter>
<filter id="filter2_d_116_67" x="1232" y="870" width="185.008" height="114" filterUnits="userSpaceOnUse" color-interpolation-filters="sRGB">
<feFlood flood-opacity="0" result="BackgroundImageFix"/>
<feColorMatrix in="SourceAlpha" type="matrix" values="0 0 0 0 0 0 0 0 0 0 0 0 0 0 0 0 0 0 127 0" result="hardAlpha"/>
<feOffset dx="10" dy="15"/>
<feGaussianBlur stdDeviation="2"/>
<feComposite in2="hardAlpha" operator="out"/>
<feColorMatrix type="matrix" values="0 0 0 0 0 0 0 0 0 0 0 0 0 0 0 0 0 0 0.25 0"/>
<feBlend mode="normal" in2="BackgroundImageFix" result="effect1_dropShadow_116_67"/>
<feBlend mode="normal" in="SourceGraphic" in2="effect1_dropShadow_116_67" result="shape"/>
</filter>
<filter id="filter3_d_116_67" x="1363" y="540" width="186" height="115" filterUnits="userSpaceOnUse" color-interpolation-filters="sRGB">
<feFlood flood-opacity="0" result="BackgroundImageFix"/>
<feColorMatrix in="SourceAlpha" type="matrix" values="0 0 0 0 0 0 0 0 0 0 0 0 0 0 0 0 0 0 127 0" result="hardAlpha"/>
<feOffset dx="10" dy="15"/>
<feGaussianBlur stdDeviation="2"/>
<feComposite in2="hardAlpha" operator="out"/>
<feColorMatrix type="matrix" values="0 0 0 0 0 0 0 0 0 0 0 0 0 0 0 0 0 0 0.25 0"/>
<feBlend mode="normal" in2="BackgroundImageFix" result="effect1_dropShadow_116_67"/>
<feBlend mode="normal" in="SourceGraphic" in2="effect1_dropShadow_116_67" result="shape"/>
</filter>
<filter id="filter4_d_116_67" x="1209" y="47" width="180" height="115" filterUnits="userSpaceOnUse" color-interpolation-filters="sRGB">
<feFlood flood-opacity="0" result="BackgroundImageFix"/>
<feColorMatrix in="SourceAlpha" type="matrix" values="0 0 0 0 0 0 0 0 0 0 0 0 0 0 0 0 0 0 127 0" result="hardAlpha"/>
<feOffset dx="10" dy="15"/>
<feGaussianBlur stdDeviation="2"/>
<feComposite in2="hardAlpha" operator="out"/>
<feColorMatrix type="matrix" values="0 0 0 0 0 0 0 0 0 0 0 0 0 0 0 0 0 0 0.25 0"/>
<feBlend mode="normal" in2="BackgroundImageFix" result="effect1_dropShadow_116_67"/>
<feBlend mode="normal" in="SourceGraphic" in2="effect1_dropShadow_116_67" result="shape"/>
</filter>
<filter id="filter5_d_116_67" x="1385" y="210" width="236.999" height="117" filterUnits="userSpaceOnUse" color-interpolation-filters="sRGB">
<feFlood flood-opacity="0" result="BackgroundImageFix"/>
<feColorMatrix in="SourceAlpha" type="matrix" values="0 0 0 0 0 0 0 0 0 0 0 0 0 0 0 0 0 0 127 0" result="hardAlpha"/>
<feOffset dx="10" dy="16"/>
<feGaussianBlur stdDeviation="2"/>
<feComposite in2="hardAlpha" operator="out"/>
<feColorMatrix type="matrix" values="0 0 0 0 0 0 0 0 0 0 0 0 0 0 0 0 0 0 0.25 0"/>
<feBlend mode="normal" in2="BackgroundImageFix" result="effect1_dropShadow_116_67"/>
<feBlend mode="normal" in="SourceGraphic" in2="effect1_dropShadow_116_67" result="shape"/>
</filter>
</defs>
</svg>
